<?xml version="1.0" encoding="utf-8"?>
<!-- Generator: Adobe Illustrator 22.0.1, SVG Export Plug-In . SVG Version: 6.00 Build 0)  -->
<svg version="1.1" id="Capa_2" xmlns="http://www.w3.org/2000/svg" xmlns:xlink="http://www.w3.org/1999/xlink" x="0px" y="0px"
	 viewBox="0 0 800 600" style="enable-background:new 0 0 800 600;" xml:space="preserve">
<style type="text/css">
	.st0{fill:none;stroke:#FFFFFF;}
	.st1{fill:none;stroke:#FFFFFF;stroke-width:1.0786;}
</style>
<path class="st0" d="M325.4,428.5c-0.5,0.2-0.9,0.3-1.4,0.5"/>
<path class="st0" d="M326.5,485.4c-1.7-0.1-3.6,0-5.6,0.2c-5.4,0.7-9.8,2.4-12.7,3.9c-5.5,1.2-11,2.4-16.4,3.5"/>
<path class="st0" d="M359,462.8c-4.1,1.1-8.2,2.2-12.3,3.3c-7.6,0.3-15.1,0.6-22.7,1c-1.4-0.4-3.2-0.8-5.3-0.8c-0.4,0-0.7,0-1.1,0
	c-4.5,0.3-7.8,2.2-9.3,3.3c-6.4-2-10.2-1.1-12.5,0.2c-2.1,1.2-3.4,2.8-7,4.5c-2.4,1.1-4.6,1.7-6.1,2c4.1-5.6,8.2-11.1,12.3-16.6
	c2.1-0.2,4.3-0.6,6.6-1.2c3.8-1,7.3-2.6,10.3-4.4c8-4.8,13.3-11.5,16-15.6c1-2.2,0.9-3.8,0.6-4.9c-0.5-1.8-2.1-3.4-4.5-4.6
	c-6.8,2.4-13.5,4.8-20.3,7.1c-1.7,0.6-3.4,1.2-5.1,1.8c-9.5,6.5-19,13-28.6,19.6c-1,1.4-2.1,3.4-2.7,5.9c-1.7,6.4,0.5,11.8,1.4,13.7
	c0.2,5.6,0.1,11.8-0.4,18.4c-0.4,6.1-1.1,11.8-2,17c0.9,7.1,1.8,14.2,2.7,21.3c2.3,1.9,4.8,4.1,7.2,6.6c4.2,4.3,7.5,8.5,10,12.3
	c0.8-2,2.7-5.8,6.5-9c5.3-4.5,11.1-5.3,13.3-5.5c3-0.7,6.6-1.7,10.4-3.5c8.9-4.2,14.7-10.3,17.8-14.3c0.2-0.4,0.6-1.7,0-2.9
	c-0.8-1.6-3.1-2.5-5.5-1.8c-4.6,1.4-9.1,2.8-13.7,4.1c-1.3-0.2-3.2-0.2-5.5,0.2c-2.7,0.5-4.7,1.6-5.9,2.3c-4.8,1.8-9.7,3.5-14.5,5.3
	c-2.3,1.4-3.3,1.3-3.7,1c-1.8-1.3,0.4-9.2,5.7-13.9c2.6-2.3,4.3-2.1,8.4-4.1c4.8-2.4,8.5-5.6,11.4-8.8c7.7-1.4,15.4-2.8,23.1-4.1
	c1.9-0.2,5.2-0.8,8.6-3.1c4.3-2.9,9.2-8,7.8-11c-0.3-0.6-1.1-1.9-4.9-2.4c-0.2,0-0.4,0.1-0.7,0.2c2.4-1,4.7-2.1,6.9-3.1
	c2.8-1.3,6.4-2.9,7.8-6.6C361,468.2,359.8,464.6,359,462.8z M327.7,485.5l-1.3,0C326.9,485.4,327.3,485.5,327.7,485.5
	c5.7-1.3,11.4-2.6,17.1-3.9C339.6,483.8,333.8,483.1,327.7,485.5z"/>
<path class="st0" d="M344.8,481.5c-5.2,2.3-12.1,2-18.1,4.5l-0.3-0.6c0.4,0,0.9,0,1.3,0C333.4,484.2,339.1,482.8,344.8,481.5z"/>
<path class="st0" d="M397.8,262.3c-0.4,1.8-1.6,5.8-3.6,5.9c-0.9,0-1.7-0.8-2.3-1.5c-0.7,0.8-1.4,1.5-2.1,2.3
	c-0.2,0.3-1.9,2.1-4.5,2.1h-0.1c-2.3,0-3.8-1.5-4.1-1.8c-0.1-0.2-2.5-3.7-6.7-3.6c-3.6,0.1-5.6,2.7-5.9,3.1
	c-3.5,0.3-6.8-1.6-8.2-4.6c-0.5-1-0.7-2-0.7-3c8.8-0.7,18.8-2.2,30.4-3.9c2.6-0.4,5.1-0.8,7.5-1.2C398,257.8,398.3,260,397.8,262.3z
	"/>
<path class="st0" d="M407.3,295.8c-1.1,2-4.1,6.8-10,9.8c-4.7,2.4-9,2.5-10.8,2.6c-8.7,0.2-15.1-4.1-17.5-5.9
	c-0.9-0.8-1.9-1.7-3.1-2.6c-2.1-1.5-4.1-2.6-5.9-3.3c-0.3-0.1-0.5-0.2-0.8-0.3c3.1-3.1,5.9-5.5,8-7.2c6.5-5.4,8.4-5.9,10-5.9
	c3.2,0,5.8,2,7.2,3.3c0.3-0.4,2-3,5.2-4.2c0.9-0.4,1.9-0.6,3-0.7c4.4-0.3,8.6,2.4,10.5,6.7c1.2,2.3,2.4,4.6,3.7,6.9
	C407,295.2,407.2,295.5,407.3,295.8z"/>
<path class="st1" d="M450.9,176.4c-1.3-4.9-3-9.3-4.9-13.2c-4.2-4.2-8.4-8.4-12.5-12.7c-5.1,1-10.4,2-15.7,2.9
	c-6.7,1.1-13.5,2.2-20.5,3.2c-7.2,1-14.5,2-22,2.9c-4.3,0.5-8.6,1-12.9,1.4c-16.5,1.7-32.3,2.7-47.2,3.3c-0.7,0-1.3,0.1-2,0.1
	c-1.3,1.1-8.8,7.5-14.5,18.2c-4.2,7.9-7.4,18-6.2,29.9c1.8,19.1,14,33.9,26.7,41.7c11.7,7.2,24.2,8.4,40.4,7.1
	c8.8-0.7,18.8-2.2,30.4-3.9c2.6-0.4,5.1-0.8,7.5-1.2c14.1-2.5,25.7-5.7,33.9-8.3c4.5-4.4,9.1-8.8,13.6-13.2c0.2-0.3,0.3-0.7,0.5-1
	C450.3,222,457.4,200.5,450.9,176.4z M443,193.8c-0.3,11.3-0.6,22.7-0.9,34c-2.8,3.3-5.6,6.6-8.4,9.9c-26.8,4-53.7,8-80.5,11.9
	c-4.1,0.9-11.9,2.1-20.9-0.5c-12.8-3.7-22.8-13.3-27.3-24.4c-6.8-16.6-1.6-37.1,13.4-50.7c15.8,0.5,33.5,0.2,52.7-1.5
	c21.2-1.9,40.3-5.1,57.1-8.9c1.5-0.3,3-0.7,4.5-1c3.6,3.2,7.3,6.3,10.9,9.5C443.4,179.3,443.2,186.5,443,193.8z"/>
<path class="st1" d="M443.6,172.1c-0.2,7.2-0.4,14.4-0.6,21.6c-0.3,11.3-0.6,22.7-0.9,34c-2.8,3.3-5.6,6.6-8.4,9.9
	c-26.8,4-53.7,8-80.5,11.9c-4.1,0.9-11.9,2.1-20.9-0.5c-12.8-3.7-22.8-13.3-27.3-24.4c-6.8-16.6-1.6-37.1,13.4-50.7
	c15.8,0.5,33.5,0.2,52.7-1.5c21.2-1.9,40.3-5.1,57.1-8.9c1.5-0.3,3-0.7,4.5-1C436.3,165.8,439.9,169,443.6,172.1z"/>
<path class="st1" d="M563.7,324.4c30.7,20.4,60.7,78.8,60.7,78.8c21.9,42.5,54.7,98.5,107.2,170.2"/>
<path class="st0" d="M397.8,262.3c-0.4,1.8-1.6,5.8-3.6,5.9c-0.9,0-1.7-0.8-2.3-1.5c-0.7,0.8-1.4,1.5-2.1,2.3
	c-0.2,0.3-1.9,2.1-4.5,2.1h-0.1c-2.3,0-3.8-1.5-4.1-1.8c-0.1-0.2-2.5-3.7-6.7-3.6c-3.6,0.1-5.6,2.7-5.9,3.1
	c-3.5,0.3-6.8-1.6-8.2-4.6c-0.5-1-0.7-2-0.7-3c8.8-0.7,18.8-2.2,30.4-3.9c2.6-0.4,5.1-0.8,7.5-1.2C398,257.8,398.3,260,397.8,262.3z
	"/>
<path class="st0" d="M407.3,295.8c-1.1,2-4.1,6.8-10,9.8c-4.7,2.4-9,2.5-10.8,2.6c-8.7,0.2-15.1-4.1-17.5-5.9
	c-0.9-0.8-1.9-1.7-3.1-2.6c-2.1-1.5-4.1-2.6-5.9-3.3c-0.3-0.1-0.5-0.2-0.8-0.3c3.1-3.1,5.9-5.5,8-7.2c6.5-5.4,8.4-5.9,10-5.9
	c3.2,0,5.8,2,7.2,3.3c0.3-0.4,2-3,5.2-4.2c0.9-0.4,1.9-0.6,3-0.7c4.4-0.3,8.6,2.4,10.5,6.7c1.2,2.3,2.4,4.6,3.7,6.9
	C407,295.2,407.2,295.5,407.3,295.8z"/>
<path class="st0" d="M407.3,295.8c-1.1,2-4.1,6.8-10,9.8c-4.7,2.4-9,2.5-10.8,2.6c-8.7,0.2-15.1-4.1-17.5-5.9
	c-0.9-0.8-1.9-1.7-3.1-2.6c-2.1-1.5-4.1-2.6-5.9-3.3c2.6-0.4,4.7-0.9,6.4-1.3c2.5-0.6,3.7-1,5.9-1.1c4.8-0.2,7.4,1.4,10.7,2.1
	c3.1,0.7,7.7,0.7,14.1-2.3c1.7,0,3.6,0.1,5.5,0.4c1.5,0.2,2.9,0.5,4.3,0.9C407,295.2,407.2,295.5,407.3,295.8z"/>
<path class="st0" d="M395.7,146.7c-1.2,2.9-0.6,5.6-0.3,6.5c0.4,1.4,1.1,2.5,1.9,3.5c-7.2,1-14.5,2-22,2.9c-4.3,0.5-8.6,1-12.9,1.4
	c-2.2-2.4-4.4-4.8-6.6-7.1c-7-2.3-13.4-3.5-19-4.2c-4.8-0.6-9-0.7-12.4-0.7c-8.7,0-23.2,0.3-38.7,8.6c-7.7,4.1-13.1,8.9-16.6,12.3
	c1-7.1,2-14.1,3.1-21.2c7.3-5.8,15.9-11.7,26.1-16.9c38.2-19.5,75.6-18.3,95.8-16c3.5,8.3,7,16.6,10.4,24.9
	c-1.9,0.2-3.7,0.8-5.2,1.8C397.8,143.4,396.5,144.9,395.7,146.7z"/>
<path class="st1" d="M445.4,233.4c-0.2,0.4-0.3,0.7-0.5,1c-4.5,4.4-9.1,8.8-13.6,13.2c-8.2,2.6-19.8,5.8-33.9,8.3
	c0.6,1.9,0.9,4.1,0.4,6.4c-0.4,1.8-1.6,5.8-3.6,5.9c-0.9,0-1.7-0.8-2.3-1.5c-0.7,0.8-1.4,1.5-2.1,2.3c-0.2,0.3-1.9,2.1-4.5,2.1h-0.1
	c-2.3,0-3.8-1.5-4.1-1.8c-0.1-0.2-2.5-3.7-6.7-3.6c-3.6,0.1-5.6,2.7-5.9,3.1c-3.5,0.3-6.8-1.6-8.2-4.6c-0.5-1-0.7-2-0.7-3
	c-16.2,1.3-28.7,0-40.4-7.1c-12.7-7.8-24.9-22.5-26.7-41.7c-1.1-11.9,2.1-22,6.2-29.9c-11.9,16.7-17,33.5-19.1,41.9
	c0.8,5.8,1.7,11.6,2.5,17.4c4.3,11.9,10,25,17.4,38.8c8,14.9,16.6,27.8,24.9,38.8c0,0,0,0,0,0c4.4,5.8,8.7,11,12.8,15.8
	c3.4,2.5,8.4,5.8,14.9,8.5c0,0,0,0,0,0c0,0,0,0,0.1,0c0.4,0.1,1.8,0.7,4.1,1.4c0.7,0.2,1.5,0.5,2.3,0.7c0.4,0.1,0.8,0.2,1.2,0.3
	c1,0.3,2.1,0.6,3.3,0.8c0.7,0.2,1.4,0.3,2.1,0.5c0,0,0,0,0,0c0.7,0.2,1.5,0.3,2.3,0.4c0.4,0.1,0.8,0.1,1.2,0.2h0
	c1.2,0.2,2.5,0.4,3.8,0.5c0.8,0.1,1.5,0.1,2.3,0.2c0.5,0,0.9,0.1,1.4,0.1c0.9,0,1.8,0.1,2.6,0.1c1.7,0,3.3-0.1,5-0.2
	c15.1-1.5,31.6-14.5,43.1-35.1c0.4-0.7,0.8-1.5,1.2-2.2c0.4-0.7,0.7-1.4,1.1-2.1c0.5-1,1-2,1.5-3c1.2-2.7,2.4-5.5,3.5-8.4
	c1.5-3.9,2.7-8,3.8-12.3c2.5-12.8,5-25.5,7.5-38.3C445.5,242.6,445.5,238,445.4,233.4z M397.3,305.5c-4.7,2.4-9,2.5-10.8,2.6
	c-8.7,0.2-15.1-4.1-17.5-5.9c-0.9-0.8-1.9-1.7-3.1-2.6c-2.1-1.5-4.1-2.6-5.9-3.3c-0.3-0.1-0.5-0.2-0.8-0.3c3.1-3.1,5.9-5.5,8-7.2
	c6.5-5.4,8.4-5.9,10-5.9c3.2,0,5.8,2,7.2,3.3c0.3-0.4,2-3,5.2-4.2c0.9-0.4,1.9-0.6,3-0.7c4.4-0.3,8.6,2.4,10.5,6.7
	c1.2,2.3,2.4,4.6,3.7,6.9c0.1,0.3,0.3,0.5,0.4,0.8C406.2,297.8,403.2,302.5,397.3,305.5z"/>
<path class="st1" d="M448,309.6c-0.9,0.6-1.7,1.3-2.5,2c-3.4,3-6.4,6.5-9.2,10.6c-4.5,6.5-8.7,14.6-14.3,25
	c-7.8,14.5-19.8,36.4-35.6,64c-6.3-8.5-12.6-16.9-18.9-25.4c-3.6-5.5-7.5-11.2-11.8-17c-3.6-4.8-7.1-9.4-10.7-13.7
	c-3.2-3.9-6.3-7.5-9.4-11c-7.4-17.3-3.8-7.5-11.1-24.8c4.4,5.8,8.7,11,12.8,15.8c3.4,2.5,8.4,5.8,14.9,8.5c0,0,0,0,0,0
	c0,0,0,0,0.1,0c0.4,0.1,1.8,0.7,4.1,1.4c0.7,0.2,1.5,0.5,2.3,0.7c0.4,0.1,0.8,0.2,1.2,0.3c1,0.3,2.1,0.6,3.3,0.8
	c0.7,0.2,1.4,0.3,2.1,0.5c0,0,0,0,0,0c0.7,0.2,1.5,0.3,2.3,0.4c0.4,0.1,0.8,0.1,1.2,0.2h0c1.2,0.2,2.5,0.4,3.8,0.5
	c0.8,0.1,1.5,0.1,2.3,0.2c0.5,0,0.9,0.1,1.4,0.1c0.9,0,1.8,0.1,2.6,0.1c1.7,0,3.3-0.1,5-0.2c15.1-1.5,31.6-14.5,43.1-35.1
	c0.4-0.7,0.8-1.5,1.2-2.2c0.4-0.7,0.7-1.4,1.1-2.1c0.5-1,1-2,1.5-3c1.2-2.7,2.4-5.5,3.5-8.4C438.9,301.7,443.4,305.7,448,309.6z"/>
<path class="st1" d="M265.8,346.9c-0.4,0.3-5.2,4-11.3,2.3c-5.9-1.7-8-7.1-8.2-7.6l-3.2,0.4c-3.6,0.4-7.1,0.9-10.7,1.3
	c-11.3,11.5-22.7,23-34,34.5c0.6-8.3,1.2-16.6,1.8-24.9c1-1.8,2.1-3.7,3.1-5.5c4.5-3.1,9-6.3,13.5-9.4c2.5-1.7,4.9-3.4,7.4-5.1
	c3.1-0.8,8-1.7,13.9-1.1c5.3,0.5,9.6,1.9,12.5,3.1c0.7,0.3,1.4,0.6,2.1,0.9c3,1.3,5.9,2.6,8.9,3.9C263,342,264.4,344.5,265.8,346.9z
	"/>
<path class="st1" d="M251.1,309.3c-2.6,3.1-7.2,4.1-11.5,2.4c-6.7,2.4-13.5,4.9-20.2,7.3c-3.4,6-6.8,12-10.2,18l-5.9,10.3
	c-1,1.8-2.1,3.7-3.1,5.5c-0.6,8.3-1.2,16.6-1.8,24.9c-3.3,14.3-2.6,17.8-1.3,18.3c2.7,1.1,10.4-10.2,16.7-19.5
	c7.3-10.7,7.5-12.9,12.2-16.4c0,0,6.1-4.5,19.5-5.9c1.3-0.1,3.3-0.2,3.8,0.7c0.4,0.7-0.2,1.8-0.7,2.5c-1.3,2.1-3.1,3.2-3.5,3.4
	c-2,1.2-2,2.1-6.6,8.4c-4.7,6.4-4.9,5.6-6.6,8.4c-2.3,3.8-3.1,6.9-4.5,12.9c-2.1,9.1-1.3,12-3.8,21.6c0,0-0.8,3.2-2.1,7
	c-5.4,16-26.4,38.3-29.3,41.3c19.4,34.9,38.8,69.7,58.2,104.6c-28.2-0.2-56.4-0.4-84.7-0.6c0,0,0-0.3,0-0.4
	c0.3-8.2,0.5-16.3,0.8-24.5c-3.3-5.8-7.1-14.2-9.6-24.8c-2.3-9.8-2.6-18.4-2.4-24.8c-2.7-5.9-5.3-11.7-8-17.6
	c-1.2-4.2-2.2-9.4-2.4-15.2c-0.6-17.6,6.4-31.1,10.4-37.6c0.5-6.9,1.1-13.9,1.6-20.8c4.3-8,8.5-16,12.8-24
	c4.8-12.8,9.6-25.6,14.4-38.4c1.6-1.7,3.2-3.4,4.9-5.1c8-8.4,16-16.8,23.9-25.3c13.6-1.3,27.2-2.7,40.8-4
	C253.1,302.4,253.6,306.2,251.1,309.3z"/>
<path class="st1" d="M107.3,196.9c-0.4,0-0.9,0-1.3,0c-0.3,0-0.6,0-0.9,0c-9,0.4-18.6,2.8-25.3,10.4c-12.1,13.6-6.9,34.3-6.1,36.9
	c-2.5-1.5-13.9-8.7-16.4-21.9c-2.9-15.2,7.2-32.3,25.3-39.6c4.4,1.1,12.4,2.6,22.5,2.4c0.2,0,0.5,0,0.7,0c0.5,0,1,0,1.5-0.1
	L107.3,196.9z"/>
<path class="st1" d="M683.3,169.8c-5.8-8.2-14-17.4-22.5-16.4c-9.6,1.1-11.7,14-21.9,17.8c-7.4,2.8-19.7,0.9-41-19.1
	c-0.2,3-0.8,15,7.5,24.6c9.3,10.7,25.8,14.2,41,8.2c-3.8,3.5-11.2,9.3-21.9,11.6c-23.1,5.1-41.4-10.2-43.7-12.3
	c5.1,4.7,10.7,10.8,15.7,18.5c15.9,24,17.3,49,17.1,61.5c0-2.3-0.1-7.7-1.7-14.5c-1.9-8.2-6-18.3-14.7-27.2
	c-8.4-8.6-17.7-12.5-23.2-14.4c-0.5,2.5-2.6,14.3,4.8,26c7.5,11.8,19.4,14.9,22.7,15.6c0.2,0,0.4,0.1,0.5,0.1
	c-2.3,0.6-17.1,3.9-30.1-5.5c-7.8-5.6-11.1-13.1-12.3-16.4c-0.2,6.2,0.3,16.2,4.8,27.3c7.6,18.8,21.7,28.6,27.3,32.1
	c3,4.6,3.6,8.3,3.4,10.9c-0.6,10.4-12.6,20.5-31.4,26.1c-6.2-4.1-12.4-6.7-18.3-6.9c-4.4-0.2-18.7,0.5-34.8-6.7
	c-9.6-4.3-11-7.4-19-9.7c-17-5-33.3,2.7-37.1,4.6c-2.4,1.2-4.5,2.5-6.5,4c-4.6-4-9.1-7.9-13.7-11.9c1.5-3.9,2.7-8,3.8-12.3
	c2.5-12.8,5-25.5,7.5-38.3c-0.1-4.6-0.1-9.2-0.2-13.8c5-11.4,12-32.9,5.5-57c-1.3-4.9-3-9.3-4.9-13.2c-4.2-4.2-8.4-8.4-12.5-12.7
	c-5.1,1-10.4,2-15.7,2.9c-6.7,1.1-13.5,2.2-20.5,3.2c-0.8-0.9-1.5-2.1-1.9-3.5c-0.3-0.9-0.9-3.6,0.3-6.5c0.8-1.8,2.1-3.3,3.7-4.4
	c1.5-1,3.3-1.6,5.2-1.8c-3.5-8.3-7-16.6-10.4-24.9c-20.2-2.4-57.6-3.6-95.8,16c-10.2,5.2-18.8,11.1-26.1,16.9
	c-1,7.1-2,14.1-3.1,21.2c3.5-3.4,8.9-8.2,16.6-12.3c15.5-8.3,30-8.5,38.7-8.6c3.4,0,7.6,0.1,12.4,0.7c5.6,0.7,12,1.9,19,4.2
	c2.2,2.4,4.4,4.8,6.6,7.1c-16.5,1.7-32.3,2.7-47.2,3.3c-0.7,0-1.3,0.1-2,0.1c-1.3,1.1-8.8,7.5-14.5,18.2
	c-11.9,16.7-17,33.5-19.1,41.9c0.8,5.8,1.7,11.6,2.5,17.4c4.3,11.9,10,25,17.4,38.8c8,14.9,16.6,27.8,24.9,38.8c0,0,0,0,0,0
	c7.4,17.3,3.7,7.5,11.1,24.8c3.1,3.5,6.2,7.2,9.4,11c-4.6,0.7-9.3,1.2-14.3,1.2c-34,0.2-57.7-17.9-64.9-23.9
	c-2.6,0.8-7.2,2.1-13,3.2c-0.7-0.3-1.4-0.6-2.1-0.9c-2.9-1.2-7.1-2.6-12.5-3.1c-5.9-0.5-10.7,0.3-13.9,1.1c-2.5,1.7-4.9,3.4-7.4,5.1
	c-2.5-0.2-5.1-0.5-7.6-0.9c3.4-6,6.8-12,10.2-18c6.7-2.4,13.5-4.9,20.2-7.3c4.3,1.7,8.9,0.6,11.5-2.4c2.5-3,2-6.8,1.9-7.5
	c-13.6,1.3-27.2,2.7-40.8,4c-8,8.4-16,16.8-23.9,25.3c-5-2.1-10-4.8-14.8-8.2c-2.6-1.8-6.6-9.6-15.7-14.3
	c-1.2-0.7-18.4-9.4-32.8-2.1c-7.3,3.7-10.2,9.7-11.6,8.9c-1.8-1.1,0.6-12.2,7.5-20.5c10.7-12.9,31.3-17.8,47.8-13
	c11.2,3.3,12,8.5,21.2,10.9c15.2,4,31.7-5.6,45.8-17.8c-5,1.9-25.7,8.8-48.5-0.7c-14.3-6-16-19.5-28-22.6
	c-13.4-3.4-27.8,7.1-38.3,17.1c0.1-4.2,0.8-10,3.4-16.4c6.3-15,19-21.9,23.2-23.9c-4.4-1.5-13.9-3.9-24.6-0.7
	c-14.9,4.5-26.1,18.3-29.4,35.5c-7.1-9.7-7.2-17-6.8-20.5c1.8-17.9,26.3-34.8,61.5-36.2c-5.1-2.8-13.3-6.5-23.9-8.2
	c-4.1-0.6-10.2-1.6-16.9-1.5h0l-0.2-11.8c7.3-0.3,15.7-1.5,24.6-4.4c23.1-7.6,36.6-22.5,41.7-28.7c-7.6-2.1-19-3.9-29.4,1.4
	c-9.3,4.7-8.2,10.1-15.7,14.3c-17.3,9.9-36.1-11.5-59.5-4.8c-5.8,1.7-14.2,5.8-22.5,17.1c-0.4-3-2.1-17.4,7.5-29.4
	c9.9-12.3,27.6-17.1,44.4-11.6c3.4,0.8,8.5,1.5,14.4,0.7c20.6-2.9,32.9-22.5,38.3-29.4c26.7-34.6,79.6-41,95.7-31.4
	c1.3,0.8,7,4.4,8.9,2.7c1.7-1.5-1.3-6.2-2-12.3c-0.6-4.7,0.1-11.1,4.8-19.1c-3.1-2.1-7.7-4.8-13.7-6.8c-6.1-2.1-20.2-6.8-34.2,0
	c-13.9,6.8-18.8,20.7-19.8,23.9c-1.3-3.9-3.1-10.8-2-19.1c1.3-10.4,7.9-28.8,23.9-32.1c14.6-3.1,26.7,8.4,28,9.8
	c2.8,3.8,7.8,9.6,15.7,12.8c16.6,6.7,29.3-4.9,47.2-1.4c7.3,1.5,18,6,29.4,21.2c1.2,0.2,9.5,1.8,15-3.4c6.5-6,4.2-16.4,2-21.2
	c-4.2-9.6-15.5-15.5-28.7-15c0.9-0.5,16.5-8.3,31.4,0.7c10.8,6.5,16.8,19.2,15,32.1c2.6-5.7,7.3-13.4,15.7-18.5
	c23-13.9,61.7-1.1,68.4,21.2c1.1,3.8,2.2,11-2,21.2c6.3-2.4,13.6-4.7,21.9-6.1c25.1-4.5,46.4,0,59.4,4.1c1.7,0.9,4.4,2.5,6.8,5.5
	c3.6,4.3,4.5,8.8,4.8,10.9c7.2-0.7,21-1.1,36.2,5.5c25.3,11,35.8,33.2,38.3,39c-1.3,5,1,10.1,5.5,12.3c4.8,2.3,10.8,0.6,13.7-4.1
	c5.8-4,10.8-4.7,13.7-4.8C663.4,137.4,677.3,150.1,683.3,169.8z"/>
<path class="st1" d="M445.4,233.4c-0.2,0.4-0.3,0.7-0.5,1c-4.5,4.4-9.1,8.8-13.6,13.2c-8.2,2.6-19.8,5.8-33.9,8.3
	c0.6,1.9,0.9,4.1,0.4,6.4c-0.4,1.8-1.6,5.8-3.6,5.9c-0.9,0-1.7-0.8-2.3-1.5c-0.7,0.8-1.4,1.5-2.1,2.3c-0.2,0.3-1.9,2.1-4.5,2.1h-0.1
	c-2.3,0-3.8-1.5-4.1-1.8c-0.1-0.2-2.5-3.7-6.7-3.6c-3.6,0.1-5.6,2.7-5.9,3.1c-3.5,0.3-6.8-1.6-8.2-4.6c-0.5-1-0.7-2-0.7-3
	c-16.2,1.3-28.7,0-40.4-7.1c-12.7-7.8-24.9-22.5-26.7-41.7c-1.1-11.9,2.1-22,6.2-29.9c5.7-10.6,13.2-17.1,14.5-18.2
	c0.7,0,1.3,0,2-0.1c14.9-0.6,30.7-1.6,47.2-3.3c-2.2-2.4-4.4-4.8-6.6-7.1c-7-2.3-13.4-3.5-19-4.2c-4.8-0.6-9-0.7-12.4-0.7
	c-8.7,0-23.2,0.3-38.7,8.6c-7.7,4.1-13.1,8.9-16.6,12.3c1-7.1,2-14.1,3.1-21.2c7.3-5.8,15.9-11.7,26.1-16.9
	c38.2-19.5,75.6-18.3,95.8-16c3.5,8.3,7,16.6,10.4,24.9c-1.9,0.2-3.7,0.8-5.2,1.8c-1.7,1.1-3,2.6-3.7,4.4c-1.2,2.9-0.6,5.6-0.3,6.5
	c0.4,1.4,1.1,2.5,1.9,3.5c7-1,13.8-2.1,20.5-3.2c5.4-0.9,10.6-1.9,15.7-2.9c4.2,4.2,8.4,8.5,12.5,12.7c1.9,3.9,3.6,8.3,4.9,13.2
	C457.4,200.5,450.3,222,445.4,233.4z"/>
<path class="st1" d="M406.9,295c0.1,0.3,0.3,0.5,0.4,0.8c-1.1,2-4.1,6.8-10,9.8c-4.7,2.4-9,2.5-10.8,2.6c-8.7,0.2-15.1-4.1-17.5-5.9
	c-0.9-0.8-1.9-1.7-3.1-2.6c-2.1-1.5-4.1-2.6-5.9-3.3c-0.3-0.1-0.5-0.2-0.8-0.3c3.1-3.1,5.9-5.5,8-7.2c6.5-5.4,8.4-5.9,10-5.9
	c3.2,0,5.8,2,7.2,3.3c0.3-0.4,2-3,5.2-4.2c0.9-0.4,1.9-0.6,3-0.7c4.4-0.3,8.6,2.4,10.5,6.7C404.4,290.3,405.7,292.6,406.9,295z"/>
</svg>
